<svg xmlns="http://www.w3.org/2000/svg" xmlns:xlink="http://www.w3.org/1999/xlink" version="1.1" style="" xml:space="preserve" width="855" height="263"><rect id="backgroundrect" width="100%" height="100%" x="0" y="0" fill="none" stroke="none" class="" style=""/>
<path fill="#FFF" stroke="#FFF" stroke-width="3" d="M0.9397279803618541,-2.1352483109158456e-16 h22.240076527408018 v76.58730578804591 h0.52206752411756 c7.831012861763386,-13.625962379468291 21.979042765349234,-22.240076527408018 41.71319517699297,-22.240076527408018 c30.332123151230185,0 51.58027138281484,25.268068167289858 51.58027138281484,62.178242122401294 c0,43.95808553069847 -27.826199035465894,65.72830128640068 -55.07812379440247,65.72830128640068 c-17.69808906758525,0 -31.585085209112325,-6.8390845659400235 -40.93009389081663,-23.023177813584354 h-0.52206752411756 l-1.2529620578821425,20.204013183349534 h-19.21208488752617 c0.7831012861763396,-8.353080385880945 0.9919282958233635,-20.72608070746709 0.9919282958233635,-31.585085209112325 V-2.1352483109158456e-16 zM23.179804507769855,130.41246752456632 c0,2.7669578778230632 0.26103376205878004,5.586122508057882 0.7308945337645844,8.092046623822165 c4.2809536977639855,15.400991961467993 17.43705530552647,26.051169453466194 33.360114791112025,26.051169453466194 c23.493038585290154,0 37.171207717170205,-18.95105112546739 37.171207717170205,-46.98607717058031 c0,-24.746000643172298 -12.634034083644929,-45.73311511269817 -36.388106430993865,-45.73311511269817 c-15.192164951820967,0 -29.34019485540682,10.597970739586447 -33.621148553170805,27.304131511348338 c-0.7831012861763396,2.7669578778230632 -1.2529620578821425,5.7949495177049055 -1.2529620578821425,9.345008681704307 V130.41246752456632 zM152.80917074615974,-2.1352483109158456e-16 h22.240076527408018 v179.43460803920502 h-22.240076527408018 V-2.1352483109158456e-16 zM356.57212540924314,122.32042090074411 c0.52206752411756,29.810055627112618 19.473118649584954,42.23526270111053 41.71319517699297,42.23526270111053 c15.923059485585549,0 25.790135691407418,-2.7669578778230632 33.882182315229585,-6.317017041822465 l4.019919935705205,15.923059485585549 c-7.831012861763386,3.5500591639994012 -21.509181993643438,7.831012861763386 -40.93009389081663,7.831012861763386 c-37.43224147922898,0 -60.142178778342796,-25.00703440523108 -60.142178778342796,-61.65617459828373 c0,-36.91017395511142 21.979042765349234,-65.98933504845945 57.636254662578516,-65.98933504845945 c39.93816559499327,0 50.27510257252094,35.13514437311172 50.27510257252094,57.636254662578516 c0,4.5419874598227645 -0.26103376205878004,7.831012861763386 -0.7831012861763396,10.389143729939423 H356.57212540924314 zM421.51732540946733,106.39736141515851 c0.26103376205878004,-14.148029903585853 -5.7949495177049055,-36.12707266893508 -30.593156913288954,-36.12707266893508 c-22.762144051525574,0 -32.36818649528866,20.72608070746709 -34.14321607728836,36.12707266893508 H421.51732540946733 zM478.63151254792837,-2.1352483109158456e-16 h22.240076527408018 v76.58730578804591 h0.52206752411756 c7.831012861763386,-13.625962379468291 21.979042765349234,-22.240076527408018 41.71319517699297,-22.240076527408018 c30.332123151230185,0 51.58027138281484,25.268068167289858 51.58027138281484,62.178242122401294 c0,43.95808553069847 -27.826199035465894,65.72830128640068 -55.07812379440247,65.72830128640068 c-17.69808906758525,0 -31.585085209112325,-6.8390845659400235 -40.93009389081663,-23.023177813584354 h-0.52206752411756 l-1.2529620578821425,20.204013183349534 h-19.21208488752617 c0.7308945337645844,-8.353080385880945 0.9919282958233635,-20.72608070746709 0.9919282958233635,-31.585085209112325 V-2.1352483109158456e-16 zM500.8715890753364,130.41246752456632 c0,2.7669578778230632 0.26103376205878004,5.586122508057882 0.7308945337645844,8.092046623822165 c4.2809536977639855,15.400991961467993 17.43705530552647,26.051169453466194 33.360114791112025,26.051169453466194 c23.493038585290154,0 37.171207717170205,-18.95105112546739 37.171207717170205,-46.98607717058031 c0,-24.746000643172298 -12.634034083644929,-45.73311511269817 -36.388106430993865,-45.73311511269817 c-15.192164951820967,0 -29.34019485540682,10.597970739586447 -33.621148553170805,27.304131511348338 c-0.7831012861763396,2.7669578778230632 -1.2529620578821425,5.7949495177049055 -1.2529620578821425,9.345008681704307 V130.41246752456632 zM643.187196149783,122.32042090074411 c0.52206752411756,29.810055627112618 19.473118649584954,42.23526270111053 41.71319517699297,42.23526270111053 c15.923059485585549,0 25.790135691407418,-2.7669578778230632 33.882182315229585,-6.317017041822465 l4.019919935705205,15.923059485585549 c-7.831012861763386,3.5500591639994012 -21.509181993643438,7.831012861763386 -40.93009389081663,7.831012861763386 c-37.43224147922898,0 -60.142178778342796,-25.00703440523108 -60.142178778342796,-61.65617459828373 c0,-36.91017395511142 21.979042765349234,-65.98933504845945 57.636254662578516,-65.98933504845945 c39.93816559499327,0 50.27510257252094,35.13514437311172 50.27510257252094,57.636254662578516 c0,4.5419874598227645 -0.26103376205878004,7.831012861763386 -0.7831012861763396,10.389143729939423 H643.187196149783 zM708.1323961500075,106.39736141515851 c0.26103376205878004,-14.148029903585853 -5.7949495177049055,-36.12707266893508 -30.593156913288954,-36.12707266893508 c-22.762144051525574,0 -32.36818649528866,20.72608070746709 -34.14321607728836,36.12707266893508 H708.1323961500075 zM765.2465832884683,-2.1352483109158456e-16 h22.240076527408018 v179.43460803920502 h-22.240076527408018 V-2.1352483109158456e-16 zM832.9587411665157,-2.1352483109158456e-16 h22.240076527408018 v179.43460803920502 h-22.240076527408018 V-2.1352483109158456e-16 zM209.81894437979724,57.21860064328452 h22.240076527408018 v75.073309968105 c0,4.019919935705205 0.7831012861763396,8.092046623822165 2.036063344058481,11.381072025762787 c4.019919935705205,9.867076205821867 14.409063665644629,20.204013183349534 29.34019485540682,20.204013183349534 c20.204013183349534,0 27.304131511348338,-15.662025723526773 27.304131511348338,-38.94623729916991 v-67.76436463045917 h22.240076527408018 v71.52325080410557 c0,42.966157234875105 -23.023177813584354,53.564127974461556 -42.23526270111053,53.564127974461556 c-21.718009003290458,0 -34.61307684899416,-12.895067845703709 -40.46023311911083,-22.762144051525574 h-0.52206752411756 l-1.2529620578821425,19.942979421290755 h-19.734152411643734 c0.7831012861763396,-9.606042443763085 0.9919282958233635,-20.72608070746709 0.9919282958233635,-33.360114791112025 V57.21860064328452 zM0.6264874658913012,220.05146141555113 h17.541468810349983 v3.4978524115876484 h-13.312721864997755 v10.806797749233471 h12.320793569174391 v3.4978524115876484 h-12.320793569174391 v14.722304180115167 h-4.176540192940473 V220.05146141555113 zM34.76970354317965,252.57626816807502 l-0.31324051447053625,-2.9235781350583303 h-0.15662025723526815 c-1.3051688102938985,1.8272363344114568 -3.8110929260581816,3.4978524115876484 -7.152325080410559,3.4978524115876484 c-4.7508144694697885,0 -7.152325080410559,-3.3412321543523786 -7.152325080410559,-6.7346710611165115 c0,-5.6383292604696384 5.01184823152857,-8.718527652763237 14.043616398762339,-8.718527652763237 v-0.46986077170580365 c0,-1.9316498392349692 -0.52206752411756,-5.429502250822614 -5.325088745999103,-5.429502250822614 c-2.1926836012937487,0 -4.4375739549992534,0.6786877813528276 -6.108190032175441,1.7228228295879482 l-0.9397215434116076,-2.81916463023482 c1.9316498392349692,-1.2529620578821425 4.7508144694697885,-2.0882700964702363 7.6743926045281174,-2.0882700964702363 c7.152325080410559,0 8.875147909998505,4.8552279742932996 8.875147909998505,9.553835691351331 v8.718527652763237 c0,2.036063344058481 0.104413504823512,4.019919935705205 0.3654472668822921,5.586122508057882 H34.76970354317965 zM34.1432225142386,240.620921865783 c-4.646400964646276,-0.104413504823512 -9.919282958233621,0.7308945337645844 -9.919282958233621,5.272881993587347 c0,2.7669578778230632 1.8272363344114568,4.072126688116961 4.019919935705205,4.072126688116961 c3.0279916398818436,0 4.959641479116812,-1.9316498392349692 5.6383292604696384,-3.9155064308816936 c0.15662025723526815,-0.41765401929404816 0.26103376205878004,-0.9397215434116076 0.26103376205878004,-1.3573755627056547 V240.620921865783 zM61.76059454005747,251.68875337707524 c-1.0963418006468755,0.5742742765293156 -3.5500591639994012,1.3573755627056547 -6.7346710611165115,1.3573755627056547 c-7.0479115755870465,0 -11.642105787821565,-4.803021221881543 -11.642105787821565,-11.903139549880349 c0,-7.204531832822319 4.9074347267050555,-12.42520707399791 12.529620578821415,-12.42520707399791 c2.5059241157642838,0 4.7508144694697885,0.6264810289410719 5.8993630225284175,1.200755305470387 l-0.9919282958233635,3.2890254019406227 c-0.9919282958233635,-0.5742742765293156 -2.610337620587796,-1.0963418006468755 -4.9074347267050555,-1.0963418006468755 c-5.377295498410859,0 -8.248666881057432,3.96771318329345 -8.248666881057432,8.822941157586751 c0,5.429502250822614 3.4978524115876484,8.718527652763237 8.092046623822165,8.718527652763237 c2.4015106109407722,0 4.019919935705205,-0.6264810289410719 5.220675241175592,-1.1485485530586323 L61.76059454005747,251.68875337707524 zM71.47105048864408,222.60959228372727 c0.052206752411755944,1.4617890675291645 -0.9919282958233635,2.610337620587796 -2.714751125411307,2.610337620587796 c-1.5139958199409236,0 -2.5581308681760397,-1.1485485530586323 -2.5581308681760397,-2.610337620587796 c0,-1.5139958199409236 1.0963418006468755,-2.6625443729995517 2.6625443729995517,-2.6625443729995517 C70.42691544040896,219.99925466313945 71.47105048864408,221.1478032161981 71.47105048864408,222.60959228372727 zM66.7202360191743,252.57626816807502 v-23.388625080466642 h4.228746945352228 v23.388625080466642 H66.7202360191743 zM78.04910129252531,218.27643183355144 h4.228746945352228 v34.299836334523626 h-4.228746945352228 V218.27643183355144 zM94.12878103534615,222.60959228372727 c0.052206752411755944,1.4617890675291645 -0.9919282958233635,2.610337620587796 -2.714751125411307,2.610337620587796 c-1.5139958199409236,0 -2.5581308681760397,-1.1485485530586323 -2.5581308681760397,-2.610337620587796 c0,-1.5139958199409236 1.0963418006468755,-2.6625443729995517 2.6625443729995517,-2.6625443729995517 C93.13685273952277,219.99925466313945 94.12878103534615,221.1478032161981 94.12878103534615,222.60959228372727 zM89.4301733182881,252.57626816807502 v-23.388625080466642 h4.228746945352228 v23.388625080466642 H89.4301733182881 zM105.82309357557943,222.50517877890368 v6.7346710611165115 h6.108190032175441 v3.236818649528867 h-6.108190032175441 v12.581827331233173 c0,2.8713713826465748 0.8353080385880964,4.5419874598227645 3.1846118971171107,4.5419874598227645 c1.0963418006468755,0 1.9316498392349692,-0.15662025723526815 2.4537173633525287,-0.31324051447053625 l0.20882700964702391,3.1846118971171107 c-0.8353080385880964,0.31324051447053625 -2.1404768488819923,0.5742742765293156 -3.758886173646426,0.5742742765293156 c-1.9838565916467257,0 -3.5500591639994012,-0.6264810289410719 -4.594194212234521,-1.775029581999703 c-1.200755305470387,-1.2529620578821425 -1.6184093247644338,-3.3412321543523786 -1.6184093247644338,-6.108190032175441 v-12.73844758846844 h-3.6022659164111595 v-3.236818649528867 h3.6022659164111595 v-5.586122508057882 L105.82309357557943,222.50517877890368 zM121.43291254669447,222.60959228372727 c0.052206752411755944,1.4617890675291645 -0.9919282958233635,2.610337620587796 -2.714751125411307,2.610337620587796 c-1.5139958199409236,0 -2.5581308681760397,-1.1485485530586323 -2.5581308681760397,-2.610337620587796 c0,-1.5139958199409236 1.0963418006468755,-2.6625443729995517 2.6625443729995517,-2.6625443729995517 C120.44098425087111,219.99925466313945 121.43291254669447,221.1478032161981 121.43291254669447,222.60959228372727 zM116.6820980772247,252.57626816807502 v-23.388625080466642 h4.228746945352228 v23.388625080466642 H116.6820980772247 zM130.36026720910473,241.665056914018 c0.104413504823512,5.7427427652931495 3.758886173646426,8.092046623822165 8.03983987141041,8.092046623822165 c3.0279916398818436,0 4.8552279742932996,-0.52206752411756 6.4736372990577316,-1.200755305470387 l0.7308945337645844,3.0279916398818436 c-1.5139958199409236,0.6786877813528276 -4.072126688116961,1.4617890675291645 -7.778806109351629,1.4617890675291645 c-7.204531832822319,0 -11.485485530586299,-4.7508144694697885 -11.485485530586299,-11.798726045056835 c0,-7.0479115755870465 4.124333440528716,-12.581827331233173 10.96341800646874,-12.581827331233173 c7.622185852116362,0 9.658249196174843,6.7346710611165115 9.658249196174843,11.015624758880495 c0,0.887514790999851 -0.104413504823512,1.5662025723526793 -0.15662025723526815,1.9838565916467257 H130.36026720910473 zM142.8376810355144,238.5848585217246 c0.052206752411755944,-2.714751125411307 -1.0963418006468755,-6.89129131835178 -5.8993630225284175,-6.89129131835178 c-4.2809536977639855,0 -6.160396784587196,3.96771318329345 -6.5258440514694875,6.89129131835178 H142.8376810355144 zM151.60841544068938,248.24310771789936 c1.2529620578821425,0.8353080385880964 3.4978524115876484,1.6706160771761895 5.586122508057882,1.6706160771761895 c3.0801983922936,0 4.5419874598227645,-1.5662025723526793 4.5419874598227645,-3.4978524115876484 c0,-2.036063344058481 -1.200755305470387,-3.132405144705355 -4.3331604501757415,-4.2809536977639855 c-4.176540192940473,-1.5139958199409236 -6.160396784587196,-3.8110929260581816 -6.160396784587196,-6.630257556293 c0,-3.758886173646426 3.0279916398818436,-6.8390845659400235 8.03983987141041,-6.8390845659400235 c2.3493038585290162,0 4.4375739549992534,0.6786877813528276 5.7427427652931495,1.4617890675291645 l-1.0441350482351186,3.0801983922936 c-0.9397215434116076,-0.5742742765293156 -2.610337620587796,-1.3573755627056547 -4.803021221881543,-1.3573755627056547 c-2.5059241157642838,0 -3.9155064308816936,1.4617890675291645 -3.9155064308816936,3.1846118971171107 c0,1.9316498392349692 1.4095823151174116,2.81916463023482 4.4375739549992534,3.96771318329345 c4.072126688116961,1.5662025723526793 6.108190032175441,3.5500591639994012 6.108190032175441,7.0479115755870465 c0,4.124333440528716 -3.1846118971171107,6.995704823175294 -8.718527652763237,6.995704823175294 c-2.5581308681760397,0 -4.9074347267050555,-0.6264810289410719 -6.5780508038812435,-1.6184093247644338 L151.60841544068938,248.24310771789936 zM209.14025659844438,238.27161800725403 c-0.26103376205878004,-4.5419874598227645 -0.52206752411756,-9.971489710645377 -0.46986077170580365,-14.043616398762339 h-0.15662025723526815 c-1.0963418006468755,3.8110929260581816 -2.4537173633525287,7.8832196141751405 -4.124333440528716,12.373000321586149 l-5.7427427652931495,15.766439228350281 h-3.1846118971171107 l-5.272881993587347,-15.505405466291501 c-1.5662025723526793,-4.594194212234521 -2.8713713826465748,-8.770734405174995 -3.758886173646426,-12.634034083644929 h-0.104413504823512 c-0.104413504823512,4.072126688116961 -0.3654472668822921,9.501628938939575 -0.6264810289410719,14.356856913232876 l-0.887514790999851,13.939202893938827 h-4.019919935705205 l2.244890353705505,-32.52480675252393 h5.377295498410859 l5.533915755646126,15.714232475938527 c1.3573755627056547,4.019919935705205 2.4537173633525287,7.569979099704608 3.2890254019406227,10.96341800646874 h0.15662025723526815 c0.8353080385880964,-3.2890254019406227 1.9838565916467257,-6.8390845659400235 3.4456456591758915,-10.96341800646874 l5.7949495177049055,-15.714232475938527 h5.377295498410859 l2.036063344058481,32.52480675252393 h-4.124333440528716 L209.14025659844438,238.27161800725403 zM233.6252234795579,252.57626816807502 l-0.31324051447053625,-2.9235781350583303 h-0.15662025723526815 c-1.3051688102938985,1.8272363344114568 -3.8110929260581816,3.4978524115876484 -7.152325080410559,3.4978524115876484 c-4.7508144694697885,0 -7.152325080410559,-3.3412321543523786 -7.152325080410559,-6.7346710611165115 c0,-5.6383292604696384 5.01184823152857,-8.718527652763237 14.043616398762339,-8.718527652763237 v-0.46986077170580365 c0,-1.9316498392349692 -0.52206752411756,-5.429502250822614 -5.325088745999103,-5.429502250822614 c-2.1926836012937487,0 -4.4375739549992534,0.6786877813528276 -6.108190032175441,1.7228228295879482 l-0.9397215434116076,-2.81916463023482 c1.9316498392349692,-1.2529620578821425 4.7508144694697885,-2.0882700964702363 7.6743926045281174,-2.0882700964702363 c7.152325080410559,0 8.875147909998505,4.8552279742932996 8.875147909998505,9.553835691351331 v8.718527652763237 c0,2.036063344058481 0.104413504823512,4.019919935705205 0.3654472668822921,5.586122508057882 H233.6252234795579 zM232.99874245061685,240.620921865783 c-4.646400964646276,-0.104413504823512 -9.919282958233621,0.7308945337645844 -9.919282958233621,5.272881993587347 c0,2.7669578778230632 1.8272363344114568,4.072126688116961 4.019919935705205,4.072126688116961 c3.0279916398818436,0 4.959641479116812,-1.9316498392349692 5.6383292604696384,-3.9155064308816936 c0.15662025723526815,-0.41765401929404816 0.26103376205878004,-0.9397215434116076 0.26103376205878004,-1.3573755627056547 V240.620921865783 zM243.96216045708553,235.504660129431 c0,-2.4015106109407722 -0.052206752411755944,-4.3853672025874975 -0.20882700964702391,-6.317017041822465 h3.758886173646426 l0.26103376205878004,3.863299678469938 h0.104413504823512 c1.1485485530586323,-2.1926836012937487 3.863299678469938,-4.3853672025874975 7.726599356939873,-4.3853672025874975 c3.236818649528867,0 8.248666881057432,1.9316498392349692 8.248666881057432,9.919282958233621 v13.939202893938827 h-4.228746945352228 v-13.469342122233023 c0,-3.758886173646426 -1.4095823151174116,-6.89129131835178 -5.429502250822614,-6.89129131835178 c-2.81916463023482,0 -4.959641479116812,1.9838565916467257 -5.6905360128813935,4.3331604501757415 c-0.20882700964702391,0.52206752411756 -0.31324051447053625,1.2529620578821425 -0.31324051447053625,1.9838565916467257 v14.043616398762339 h-4.228746945352228 V235.504660129431 zM283.6914990424318,252.57626816807502 l-0.31324051447053625,-2.9235781350583303 h-0.15662025723526815 c-1.3051688102938985,1.8272363344114568 -3.8110929260581816,3.4978524115876484 -7.152325080410559,3.4978524115876484 c-4.7508144694697885,0 -7.152325080410559,-3.3412321543523786 -7.152325080410559,-6.7346710611165115 c0,-5.6383292604696384 5.01184823152857,-8.718527652763237 14.043616398762339,-8.718527652763237 v-0.46986077170580365 c0,-1.9316498392349692 -0.52206752411756,-5.429502250822614 -5.325088745999103,-5.429502250822614 c-2.1926836012937487,0 -4.4375739549992534,0.6786877813528276 -6.108190032175441,1.7228228295879482 l-0.9397215434116076,-2.81916463023482 c1.9316498392349692,-1.2529620578821425 4.7508144694697885,-2.0882700964702363 7.6743926045281174,-2.0882700964702363 c7.152325080410559,0 8.875147909998505,4.8552279742932996 8.875147909998505,9.553835691351331 v8.718527652763237 c0,2.036063344058481 0.104413504823512,4.019919935705205 0.3654472668822921,5.586122508057882 H283.6914990424318 zM283.06501801349077,240.620921865783 c-4.646400964646276,-0.104413504823512 -9.919282958233621,0.7308945337645844 -9.919282958233621,5.272881993587347 c0,2.7669578778230632 1.8272363344114568,4.072126688116961 4.019919935705205,4.072126688116961 c3.0279916398818436,0 4.959641479116812,-1.9316498392349692 5.6383292604696384,-3.9155064308816936 c0.15662025723526815,-0.41765401929404816 0.26103376205878004,-0.9397215434116076 0.26103376205878004,-1.3573755627056547 V240.620921865783 zM314.18024245089725,229.18764308760845 c-0.104413504823512,1.6706160771761895 -0.20882700964702391,3.5500591639994012 -0.20882700964702391,6.421430546645977 v13.573755627056537 c0,5.377295498410859 -1.0441350482351186,8.666320900351481 -3.3412321543523786,10.650177491998205 c-2.244890353705505,2.1404768488819923 -5.533915755646126,2.81916463023482 -8.509700643116213,2.81916463023482 c-2.81916463023482,0 -5.8993630225284175,-0.6786877813528276 -7.778806109351629,-1.9316498392349692 l1.0441350482351186,-3.236818649528867 c1.5662025723526793,0.9397215434116076 3.96771318329345,1.8272363344114568 6.8390845659400235,1.8272363344114568 c4.3331604501757415,0 7.5177723472928495,-2.244890353705505 7.5177723472928495,-8.144253376233921 v-2.610337620587796 h-0.104413504823512 c-1.3051688102938985,2.1926836012937487 -3.8110929260581816,3.9155064308816936 -7.413358842469338,3.9155064308816936 c-5.7949495177049055,0 -9.919282958233621,-4.9074347267050555 -9.919282958233621,-11.381072025762787 c0,-7.935426366586898 5.168468488763833,-12.42520707399791 10.545763987174695,-12.42520707399791 c4.072126688116961,0 6.264810289410708,2.1404768488819923 7.308945337645826,4.072126688116961 h0.104413504823512 l0.20882700964702391,-3.4978524115876484 H314.18024245089725 zM309.74266849589804,238.42823826448932 c0,-0.7308945337645844 -0.052206752411755944,-1.3573755627056547 -0.26103376205878004,-1.9316498392349692 c-0.7831012861763396,-2.4537173633525287 -2.8713713826465748,-4.489780707411009 -5.951569774940175,-4.489780707411009 c-4.072126688116961,0 -6.943498070763535,3.4456456591758915 -6.943498070763535,8.822941157586751 c0,4.594194212234521 2.2970971061172607,8.4052871382927 6.89129131835178,8.4052871382927 c2.610337620587796,0 4.959641479116812,-1.6184093247644338 5.8993630225284175,-4.3331604501757415 c0.26103376205878004,-0.7308945337645844 0.31324051447053625,-1.5662025723526793 0.31324051447053625,-2.244890353705505 V238.42823826448932 zM323.3686308753663,241.665056914018 c0.104413504823512,5.7427427652931495 3.758886173646426,8.092046623822165 8.03983987141041,8.092046623822165 c3.0279916398818436,0 4.8552279742932996,-0.52206752411756 6.4736372990577316,-1.200755305470387 l0.7308945337645844,3.0279916398818436 c-1.5139958199409236,0.6786877813528276 -4.072126688116961,1.4617890675291645 -7.778806109351629,1.4617890675291645 c-7.204531832822319,0 -11.485485530586299,-4.7508144694697885 -11.485485530586299,-11.798726045056835 c0,-7.0479115755870465 4.124333440528716,-12.581827331233173 10.96341800646874,-12.581827331233173 c7.622185852116362,0 9.658249196174843,6.7346710611165115 9.658249196174843,11.015624758880495 c0,0.887514790999851 -0.104413504823512,1.5662025723526793 -0.15662025723526815,1.9838565916467257 H323.3686308753663 zM335.846044701776,238.5848585217246 c0.052206752411755944,-2.714751125411307 -1.0963418006468755,-6.89129131835178 -5.8993630225284175,-6.89129131835178 c-4.2809536977639855,0 -6.160396784587196,3.96771318329345 -6.5258440514694875,6.89129131835178 H335.846044701776 zM345.1910533834803,235.504660129431 c0,-2.4015106109407722 -0.052206752411755944,-4.3853672025874975 -0.20882700964702391,-6.317017041822465 h3.70667942123467 l0.20882700964702391,3.758886173646426 h0.15662025723526815 c1.3051688102938985,-2.1926836012937487 3.4978524115876484,-4.2809536977639855 7.361152090057582,-4.2809536977639855 c3.1846118971171107,0 5.586122508057882,1.9316498392349692 6.630257556293,4.698607717058032 h0.104413504823512 c0.7308945337645844,-1.3051688102938985 1.6184093247644338,-2.2970971061172607 2.610337620587796,-3.0279916398818436 c1.4095823151174116,-1.0441350482351186 2.9235781350583303,-1.6184093247644338 5.168468488763833,-1.6184093247644338 c3.0801983922936,0 7.6743926045281174,2.036063344058481 7.6743926045281174,10.128109967880645 v13.78258263670356 h-4.124333440528716 v-13.208308360174247 c0,-4.489780707411009 -1.6184093247644338,-7.204531832822319 -5.064054983940322,-7.204531832822319 c-2.4015106109407722,0 -4.2809536977639855,1.775029581999703 -5.01184823152857,3.863299678469938 c-0.20882700964702391,0.5742742765293156 -0.31324051447053625,1.3573755627056547 -0.31324051447053625,2.1404768488819923 v14.409063665644629 h-4.176540192940473 v-13.991409646350581 c0,-3.70667942123467 -1.6184093247644338,-6.421430546645977 -4.8552279742932996,-6.421430546645977 c-2.6625443729995517,0 -4.594194212234521,2.1404768488819923 -5.272881993587347,4.228746945352228 c-0.26103376205878004,0.6264810289410719 -0.31324051447053625,1.3573755627056547 -0.31324051447053625,2.0882700964702363 v14.095823151174093 h-4.176540192940473 V235.504660129431 zM387.8439701038849,241.665056914018 c0.104413504823512,5.7427427652931495 3.758886173646426,8.092046623822165 8.03983987141041,8.092046623822165 c3.0279916398818436,0 4.8552279742932996,-0.52206752411756 6.4736372990577316,-1.200755305470387 l0.7308945337645844,3.0279916398818436 c-1.5139958199409236,0.6786877813528276 -4.072126688116961,1.4617890675291645 -7.778806109351629,1.4617890675291645 c-7.204531832822319,0 -11.485485530586299,-4.7508144694697885 -11.485485530586299,-11.798726045056835 c0,-7.0479115755870465 4.124333440528716,-12.581827331233173 10.96341800646874,-12.581827331233173 c7.622185852116362,0 9.658249196174843,6.7346710611165115 9.658249196174843,11.015624758880495 c0,0.887514790999851 -0.104413504823512,1.5662025723526793 -0.15662025723526815,1.9838565916467257 H387.8439701038849 zM400.3213839302945,238.5848585217246 c0.052206752411755944,-2.714751125411307 -1.0963418006468755,-6.89129131835178 -5.8993630225284175,-6.89129131835178 c-4.2809536977639855,0 -6.160396784587196,3.96771318329345 -6.5258440514694875,6.89129131835178 H400.3213839302945 zM409.6663926119988,235.504660129431 c0,-2.4015106109407722 -0.052206752411755944,-4.3853672025874975 -0.20882700964702391,-6.317017041822465 h3.758886173646426 l0.26103376205878004,3.863299678469938 h0.104413504823512 c1.1485485530586323,-2.1926836012937487 3.863299678469938,-4.3853672025874975 7.726599356939873,-4.3853672025874975 c3.236818649528867,0 8.248666881057432,1.9316498392349692 8.248666881057432,9.919282958233621 v13.939202893938827 h-4.228746945352228 v-13.469342122233023 c0,-3.758886173646426 -1.4095823151174116,-6.89129131835178 -5.429502250822614,-6.89129131835178 c-2.81916463023482,0 -4.959641479116812,1.9838565916467257 -5.6905360128813935,4.3331604501757415 c-0.20882700964702391,0.52206752411756 -0.31324051447053625,1.2529620578821425 -0.31324051447053625,1.9838565916467257 v14.043616398762339 h-4.228746945352228 V235.504660129431 zM441.4080980783465,222.50517877890368 v6.7346710611165115 h6.108190032175441 v3.236818649528867 h-6.108190032175441 v12.581827331233173 c0,2.8713713826465748 0.8353080385880964,4.5419874598227645 3.1846118971171107,4.5419874598227645 c1.0963418006468755,0 1.9316498392349692,-0.15662025723526815 2.4537173633525287,-0.31324051447053625 l0.20882700964702391,3.1846118971171107 c-0.8353080385880964,0.31324051447053625 -2.1404768488819923,0.5742742765293156 -3.758886173646426,0.5742742765293156 c-1.9838565916467257,0 -3.5500591639994012,-0.6264810289410719 -4.594194212234521,-1.775029581999703 c-1.200755305470387,-1.2529620578821425 -1.6184093247644338,-3.3412321543523786 -1.6184093247644338,-6.108190032175441 v-12.73844758846844 h-3.6022659164111595 v-3.236818649528867 h3.6022659164111595 v-5.586122508057882 L441.4080980783465,222.50517877890368 zM461.50769775687246,250.07034405231082 c0,-1.775029581999703 1.200755305470387,-3.0279916398818436 2.9235781350583303,-3.0279916398818436 c1.6706160771761895,0 2.81916463023482,1.2529620578821425 2.81916463023482,3.0279916398818436 c0,1.7228228295879482 -1.0963418006468755,3.0279916398818436 -2.8713713826465748,3.0279916398818436 C462.656246309931,253.09833569219273 461.50769775687246,251.7931668818988 461.50769775687246,250.07034405231082 zM482.91246624569226,220.05146141555113 h4.176540192940473 v29.026954340936285 h13.88699614152707 v3.4978524115876484 h-18.1157430868793 V220.05146141555113 zM518.465264638098,252.57626816807502 l-0.31324051447053625,-2.9235781350583303 h-0.15662025723526815 c-1.3051688102938985,1.8272363344114568 -3.8110929260581816,3.4978524115876484 -7.152325080410559,3.4978524115876484 c-4.7508144694697885,0 -7.152325080410559,-3.3412321543523786 -7.152325080410559,-6.7346710611165115 c0,-5.6383292604696384 5.01184823152857,-8.718527652763237 14.043616398762339,-8.718527652763237 v-0.46986077170580365 c0,-1.9316498392349692 -0.52206752411756,-5.429502250822614 -5.325088745999103,-5.429502250822614 c-2.1926836012937487,0 -4.4375739549992534,0.6786877813528276 -6.108190032175441,1.7228228295879482 l-0.9397215434116076,-2.81916463023482 c1.9316498392349692,-1.2529620578821425 4.7508144694697885,-2.0882700964702363 7.6743926045281174,-2.0882700964702363 c7.152325080410559,0 8.875147909998505,4.8552279742932996 8.875147909998505,9.553835691351331 v8.718527652763237 c0,2.036063344058481 0.104413504823512,4.019919935705205 0.3654472668822921,5.586122508057882 H518.465264638098 zM517.8387836091571,240.620921865783 c-4.646400964646276,-0.104413504823512 -9.919282958233621,0.7308945337645844 -9.919282958233621,5.272881993587347 c0,2.7669578778230632 1.8272363344114568,4.072126688116961 4.019919935705205,4.072126688116961 c3.0279916398818436,0 4.959641479116812,-1.9316498392349692 5.6383292604696384,-3.9155064308816936 c0.15662025723526815,-0.41765401929404816 0.26103376205878004,-0.9397215434116076 0.26103376205878004,-1.3573755627056547 V240.620921865783 zM528.8022016156258,235.504660129431 c0,-2.4015106109407722 -0.052206752411755944,-4.3853672025874975 -0.20882700964702391,-6.317017041822465 h3.758886173646426 l0.26103376205878004,3.863299678469938 h0.104413504823512 c1.1485485530586323,-2.1926836012937487 3.863299678469938,-4.3853672025874975 7.726599356939873,-4.3853672025874975 c3.236818649528867,0 8.248666881057432,1.9316498392349692 8.248666881057432,9.919282958233621 v13.939202893938827 h-4.228746945352228 v-13.469342122233023 c0,-3.758886173646426 -1.4095823151174116,-6.89129131835178 -5.429502250822614,-6.89129131835178 c-2.81916463023482,0 -4.959641479116812,1.9838565916467257 -5.6905360128813935,4.3331604501757415 c-0.20882700964702391,0.52206752411756 -0.31324051447053625,1.2529620578821425 -0.31324051447053625,1.9838565916467257 v14.043616398762339 h-4.228746945352228 V235.504660129431 zM575.7882787862061,218.27643183355144 v28.243853054759942 c0,2.0882700964702363 0.052206752411755944,4.4375739549992534 0.20882700964702391,6.0559832797636854 h-3.8110929260581816 l-0.20882700964702391,-4.072126688116961 h-0.104413504823512 c-1.3051688102938985,2.610337620587796 -4.124333440528716,4.594194212234521 -7.987633118998653,4.594194212234521 c-5.6383292604696384,0 -9.971489710645377,-4.803021221881543 -9.971489710645377,-11.850932797468591 c-0.052206752411755944,-7.778806109351629 4.803021221881543,-12.529620578821415 10.493557234762937,-12.529620578821415 c3.5500591639994012,0 6.0037765273519295,1.6706160771761895 7.0479115755870465,3.5500591639994012 h0.104413504823512 v-13.939202893938827 H575.7882787862061 zM571.559531840854,238.68927202654802 c0,-0.52206752411756 -0.052206752411755944,-1.2529620578821425 -0.20882700964702391,-1.775029581999703 c-0.6264810289410719,-2.714751125411307 -2.9235781350583303,-4.9074347267050555 -6.108190032175441,-4.9074347267050555 c-4.3853672025874975,0 -6.995704823175294,3.863299678469938 -6.995704823175294,9.03176816723377 c0,4.7508144694697885 2.2970971061172607,8.666320900351481 6.89129131835178,8.666320900351481 c2.81916463023482,0 5.429502250822614,-1.8794430868232133 6.212603536998954,-5.064054983940322 c0.15662025723526815,-0.5742742765293156 0.20882700964702391,-1.1485485530586323 0.20882700964702391,-1.8272363344114568 V238.68927202654802 zM582.2619160852639,248.24310771789936 c1.2529620578821425,0.8353080385880964 3.4978524115876484,1.6706160771761895 5.586122508057882,1.6706160771761895 c3.0801983922936,0 4.5419874598227645,-1.5662025723526793 4.5419874598227645,-3.4978524115876484 c0,-2.036063344058481 -1.200755305470387,-3.132405144705355 -4.3331604501757415,-4.2809536977639855 c-4.176540192940473,-1.5139958199409236 -6.160396784587196,-3.8110929260581816 -6.160396784587196,-6.630257556293 c0,-3.758886173646426 3.0279916398818436,-6.8390845659400235 8.03983987141041,-6.8390845659400235 c2.3493038585290162,0 4.4375739549992534,0.6786877813528276 5.7427427652931495,1.4617890675291645 l-1.0441350482351186,3.0801983922936 c-0.9397215434116076,-0.5742742765293156 -2.610337620587796,-1.3573755627056547 -4.803021221881543,-1.3573755627056547 c-2.5059241157642838,0 -3.9155064308816936,1.4617890675291645 -3.9155064308816936,3.1846118971171107 c0,1.9316498392349692 1.4095823151174116,2.81916463023482 4.4375739549992534,3.96771318329345 c4.072126688116961,1.5662025723526793 6.108190032175441,3.5500591639994012 6.108190032175441,7.0479115755870465 c0,4.124333440528716 -3.1846118971171107,6.995704823175294 -8.718527652763237,6.995704823175294 c-2.5581308681760397,0 -4.9074347267050555,-0.6264810289410719 -6.5780508038812435,-1.6184093247644338 L582.2619160852639,248.24310771789936 zM618.6500225162575,251.68875337707524 c-1.0963418006468755,0.5742742765293156 -3.5500591639994012,1.3573755627056547 -6.7346710611165115,1.3573755627056547 c-7.0479115755870465,0 -11.642105787821565,-4.803021221881543 -11.642105787821565,-11.903139549880349 c0,-7.204531832822319 4.9074347267050555,-12.42520707399791 12.529620578821415,-12.42520707399791 c2.5059241157642838,0 4.7508144694697885,0.6264810289410719 5.8993630225284175,1.200755305470387 l-0.9919282958233635,3.2890254019406227 c-0.9919282958233635,-0.5742742765293156 -2.610337620587796,-1.0963418006468755 -4.9074347267050555,-1.0963418006468755 c-5.377295498410859,0 -8.248666881057432,3.96771318329345 -8.248666881057432,8.822941157586751 c0,5.429502250822614 3.4978524115876484,8.718527652763237 8.092046623822165,8.718527652763237 c2.4015106109407722,0 4.019919935705205,-0.6264810289410719 5.220675241175592,-1.1485485530586323 L618.6500225162575,251.68875337707524 zM636.55693859349,252.57626816807502 l-0.31324051447053625,-2.9235781350583303 h-0.15662025723526815 c-1.3051688102938985,1.8272363344114568 -3.8110929260581816,3.4978524115876484 -7.152325080410559,3.4978524115876484 c-4.7508144694697885,0 -7.152325080410559,-3.3412321543523786 -7.152325080410559,-6.7346710611165115 c0,-5.6383292604696384 5.01184823152857,-8.718527652763237 14.043616398762339,-8.718527652763237 v-0.46986077170580365 c0,-1.9316498392349692 -0.52206752411756,-5.429502250822614 -5.325088745999103,-5.429502250822614 c-2.1926836012937487,0 -4.4375739549992534,0.6786877813528276 -6.108190032175441,1.7228228295879482 l-0.9397215434116076,-2.81916463023482 c1.9316498392349692,-1.2529620578821425 4.7508144694697885,-2.0882700964702363 7.6743926045281174,-2.0882700964702363 c7.152325080410559,0 8.875147909998505,4.8552279742932996 8.875147909998505,9.553835691351331 v8.718527652763237 c0,2.036063344058481 0.104413504823512,4.019919935705205 0.3654472668822921,5.586122508057882 H636.55693859349 zM635.9304575645489,240.620921865783 c-4.646400964646276,-0.104413504823512 -9.919282958233621,0.7308945337645844 -9.919282958233621,5.272881993587347 c0,2.7669578778230632 1.8272363344114568,4.072126688116961 4.019919935705205,4.072126688116961 c3.0279916398818436,0 4.959641479116812,-1.9316498392349692 5.6383292604696384,-3.9155064308816936 c0.15662025723526815,-0.41765401929404816 0.26103376205878004,-0.9397215434116076 0.26103376205878004,-1.3573755627056547 V240.620921865783 zM646.8938755710176,236.80982893972484 c0,-2.975784887470087 -0.104413504823512,-5.429502250822614 -0.20882700964702391,-7.622185852116362 h3.8110929260581816 l0.20882700964702391,4.019919935705205 h0.104413504823512 c1.7228228295879482,-2.8713713826465748 4.489780707411009,-4.5419874598227645 8.300873633469187,-4.5419874598227645 c5.6383292604696384,0 9.919282958233621,4.803021221881543 9.919282958233621,11.850932797468591 c0,8.4052871382927 -5.1162617363520795,12.529620578821415 -10.597970739586447,12.529620578821415 c-3.0801983922936,0 -5.7949495177049055,-1.3573755627056547 -7.204531832822319,-3.6544726688229163 h-0.104413504823512 v12.686240836056685 h-4.176540192940473 V236.80982893972484 zM651.0704157639581,243.07463922913547 c0,0.6264810289410719 0.104413504823512,1.200755305470387 0.20882700964702391,1.7228228295879482 c0.7831012861763396,2.9235781350583303 3.3412321543523786,4.959641479116812 6.3692237942342205,4.959641479116812 c4.489780707411009,0 7.1001183279988025,-3.6544726688229163 7.1001183279988025,-9.03176816723377 c0,-4.698607717058032 -2.4537173633525287,-8.666320900351481 -6.943498070763535,-8.666320900351481 c-2.8713713826465748,0 -5.586122508057882,2.0882700964702363 -6.421430546645977,5.272881993587347 c-0.15662025723526815,0.52206752411756 -0.31324051447053625,1.1485485530586323 -0.31324051447053625,1.7228228295879482 V243.07463922913547 zM676.7039311981302,241.665056914018 c0.104413504823512,5.7427427652931495 3.758886173646426,8.092046623822165 8.03983987141041,8.092046623822165 c3.0279916398818436,0 4.8552279742932996,-0.52206752411756 6.4736372990577316,-1.200755305470387 l0.7308945337645844,3.0279916398818436 c-1.5139958199409236,0.6786877813528276 -4.072126688116961,1.4617890675291645 -7.778806109351629,1.4617890675291645 c-7.204531832822319,0 -11.485485530586299,-4.7508144694697885 -11.485485530586299,-11.798726045056835 c0,-7.0479115755870465 4.124333440528716,-12.581827331233173 10.96341800646874,-12.581827331233173 c7.622185852116362,0 9.658249196174843,6.7346710611165115 9.658249196174843,11.015624758880495 c0,0.887514790999851 -0.104413504823512,1.5662025723526793 -0.15662025723526815,1.9838565916467257 H676.7039311981302 zM689.1813450245401,238.5848585217246 c0.052206752411755944,-2.714751125411307 -1.0963418006468755,-6.89129131835178 -5.8993630225284175,-6.89129131835178 c-4.2809536977639855,0 -6.160396784587196,3.96771318329345 -6.5258440514694875,6.89129131835178 H689.1813450245401 zM707.766948883125,250.07034405231082 c0,-1.775029581999703 1.200755305470387,-3.0279916398818436 2.9235781350583303,-3.0279916398818436 c1.6706160771761895,0 2.81916463023482,1.2529620578821425 2.81916463023482,3.0279916398818436 c0,1.7228228295879482 -1.0963418006468755,3.0279916398818436 -2.8713713826465748,3.0279916398818436 C708.9154974361836,253.09833569219273 707.766948883125,251.7931668818988 707.766948883125,250.07034405231082 zM731.3644009732386,241.665056914018 c0.104413504823512,5.7427427652931495 3.758886173646426,8.092046623822165 8.03983987141041,8.092046623822165 c3.0279916398818436,0 4.8552279742932996,-0.52206752411756 6.4736372990577316,-1.200755305470387 l0.7308945337645844,3.0279916398818436 c-1.5139958199409236,0.6786877813528276 -4.072126688116961,1.4617890675291645 -7.778806109351629,1.4617890675291645 c-7.204531832822319,0 -11.485485530586299,-4.7508144694697885 -11.485485530586299,-11.798726045056835 c0,-7.0479115755870465 4.124333440528716,-12.581827331233173 10.96341800646874,-12.581827331233173 c7.622185852116362,0 9.658249196174843,6.7346710611165115 9.658249196174843,11.015624758880495 c0,0.887514790999851 -0.104413504823512,1.5662025723526793 -0.15662025723526815,1.9838565916467257 H731.3644009732386 zM743.8418147996484,238.5848585217246 c0.052206752411755944,-2.714751125411307 -1.0963418006468755,-6.89129131835178 -5.8993630225284175,-6.89129131835178 c-4.2809536977639855,0 -6.160396784587196,3.96771318329345 -6.5258440514694875,6.89129131835178 H743.8418147996484 zM752.7691694620586,247.460006431723 c1.8794430868232133,1.1485485530586323 4.646400964646276,2.1404768488819923 7.5177723472928495,2.1404768488819923 c4.2809536977639855,0 6.786877813528269,-2.244890353705505 6.786877813528269,-5.533915755646126 c0,-3.0279916398818436 -1.7228228295879482,-4.803021221881543 -6.108190032175441,-6.4736372990577316 c-5.325088745999103,-1.8794430868232133 -8.614114147939727,-4.646400964646276 -8.614114147939727,-9.240595176880795 c0,-5.064054983940322 4.176540192940473,-8.822941157586751 10.545763987174695,-8.822941157586751 c3.3412321543523786,0 5.7427427652931495,0.7831012861763396 7.204531832822319,1.5662025723526793 l-1.1485485530586323,3.4456456591758915 c-1.0441350482351186,-0.5742742765293156 -3.236818649528867,-1.5662025723526793 -6.160396784587196,-1.5662025723526793 c-4.4375739549992534,0 -6.108190032175441,2.6625443729995517 -6.108190032175441,4.8552279742932996 c0,3.0279916398818436 1.9838565916467257,4.5419874598227645 6.4736372990577316,6.264810289410708 c5.48170900323437,2.1404768488819923 8.300873633469187,4.803021221881543 8.300873633469187,9.553835691351331 c0,5.01184823152857 -3.70667942123467,9.345008681704307 -11.381072025762787,9.345008681704307 c-3.132405144705355,0 -6.5780508038812435,-0.9397215434116076 -8.300873633469187,-2.0882700964702363 L752.7691694620586,247.460006431723 zM782.0049508126418,222.50517877890368 v6.7346710611165115 h6.108190032175441 v3.236818649528867 h-6.108190032175441 v12.581827331233173 c0,2.8713713826465748 0.8353080385880964,4.5419874598227645 3.1846118971171107,4.5419874598227645 c1.0963418006468755,0 1.9316498392349692,-0.15662025723526815 2.4537173633525287,-0.31324051447053625 l0.20882700964702391,3.1846118971171107 c-0.8353080385880964,0.31324051447053625 -2.1404768488819923,0.5742742765293156 -3.758886173646426,0.5742742765293156 c-1.9838565916467257,0 -3.5500591639994012,-0.6264810289410719 -4.594194212234521,-1.775029581999703 c-1.200755305470387,-1.2529620578821425 -1.6184093247644338,-3.3412321543523786 -1.6184093247644338,-6.108190032175441 v-12.73844758846844 h-3.6022659164111595 v-3.236818649528867 h3.6022659164111595 v-5.586122508057882 L782.0049508126418,222.50517877890368 zM813.6944495265777,240.67312861819468 c0,8.666320900351481 -6.0037765273519295,12.42520707399791 -11.642105787821565,12.42520707399791 c-6.317017041822465,0 -11.224451768527521,-4.646400964646276 -11.224451768527521,-12.007553054703859 c0,-7.831012861763386 5.1162617363520795,-12.42520707399791 11.589899035409811,-12.42520707399791 C809.1524620667551,228.6655755634909 813.6944495265777,233.52080353778425 813.6944495265777,240.67312861819468 zM795.1610524204043,240.9341623802535 c0,5.1162617363520795 2.9235781350583303,8.979561414822017 7.1001183279988025,8.979561414822017 c4.072126688116961,0 7.1001183279988025,-3.8110929260581816 7.1001183279988025,-9.083974919645529 c0,-3.96771318329345 -1.9838565916467257,-8.979561414822017 -6.995704823175294,-8.979561414822017 C797.3537360216983,231.85018746060794 795.1610524204043,236.4965884252543 795.1610524204043,240.9341623802535 zM819.0717450249887,236.4965884252543 c0,-2.7669578778230632 -0.052206752411755944,-5.1162617363520795 -0.20882700964702391,-7.308945337645826 h3.70667942123467 l0.15662025723526815,4.594194212234521 h0.20882700964702391 c1.0441350482351186,-3.132405144705355 3.6022659164111595,-5.1162617363520795 6.4736372990577316,-5.1162617363520795 c0.46986077170580365,0 0.8353080385880964,0.052206752411755944 1.200755305470387,0.15662025723526815 v4.019919935705205 c-0.41765401929404816,-0.104413504823512 -0.887514790999851,-0.15662025723526815 -1.4617890675291645,-0.15662025723526815 c-2.975784887470087,0 -5.1162617363520795,2.244890353705505 -5.6905360128813935,5.429502250822614 c-0.104413504823512,0.5742742765293156 -0.20882700964702391,1.2529620578821425 -0.20882700964702391,1.9838565916467257 v12.477413826409661 h-4.176540192940473 V236.4965884252543 zM836.7698340925738,241.665056914018 c0.104413504823512,5.7427427652931495 3.758886173646426,8.092046623822165 8.03983987141041,8.092046623822165 c3.0279916398818436,0 4.8552279742932996,-0.52206752411756 6.4736372990577316,-1.200755305470387 l0.7308945337645844,3.0279916398818436 c-1.5139958199409236,0.6786877813528276 -4.072126688116961,1.4617890675291645 -7.778806109351629,1.4617890675291645 c-7.204531832822319,0 -11.485485530586299,-4.7508144694697885 -11.485485530586299,-11.798726045056835 c0,-7.0479115755870465 4.124333440528716,-12.581827331233173 10.96341800646874,-12.581827331233173 c7.622185852116362,0 9.658249196174843,6.7346710611165115 9.658249196174843,11.015624758880495 c0,0.887514790999851 -0.104413504823512,1.5662025723526793 -0.15662025723526815,1.9838565916467257 H836.7698340925738 zM849.1950411665719,238.5848585217246 c0.052206752411755944,-2.714751125411307 -1.0963418006468755,-6.89129131835178 -5.8993630225284175,-6.89129131835178 c-4.2809536977639855,0 -6.160396784587196,3.96771318329345 -6.5258440514694875,6.89129131835178 H849.1950411665719 z" id="svg_2"/></svg>