<svg xmlns="http://www.w3.org/2000/svg" height="50" viewBox="0 0 94.776 74.59"><g transform="translate(-199 -3561.805)"><g transform="translate(199 3561.805)"><path d="M115.776,40.506v-.091c0-.091,0-.183-.113-.183,0,0,0-.091-.113-.091,0-.091-.113-.091-.225-.183l-.113-.091-.113-.091s-.113,0-.113-.091h-.113l-45.641-17.2a2.024,2.024,0,0,0-1.465,0L50.413,28.981H50.3l-9.016,3.476h-.113L22.014,39.591H21.9s-.113,0-.113.091l-.113.091-.113.091-.225.183-.113.091c0,.091-.113.183-.113.183L21,40.414v38.05a1.563,1.563,0,0,0,1.014,1.281l45.754,17.1h.225c.113,0,.338.091.451.091a.8.8,0,0,0,.451-.091h.225l45.641-17.1a1.343,1.343,0,0,0,.9-1.281V40.872C115.663,40.689,115.776,40.6,115.776,40.506ZM89.743,51.665l5.635-2.1v9.878L92.11,62.823l-2.367-1.1ZM41.961,35.2l41.7,15.549L68.444,56.421l-41.7-15.549Zm9.016-3.384,41.7,15.549L87.6,49.287l-41.7-15.549Zm17.468-6.494,41.7,15.549L96.73,45.9l-41.7-15.549ZM24.381,42.975,67.2,58.8V93.373L24.381,77.549Zm46.2,50.4V58.8l15.777-5.945v9.6a1.18,1.18,0,0,0,.676,1.189l4.4,2.1a1.887,1.887,0,0,0,2.141-.366l4.733-4.665a1.512,1.512,0,0,0,.451-.823V48.28l13.523-5.3V77.549Z" transform="translate(-21 -22.35)" fill="#4d4d4d"></path><path d="M59.443,194.677v-7.325L56.4,186v7.325Z" transform="translate(-43.102 -137.313)" fill="#4d4d4d"></path><g transform="translate(17.693 50.24)"><path d="M70.354,199.552v-7.325L68.1,191.1v7.325Z" transform="translate(-68.1 -191.1)" fill="#4d4d4d"></path></g><g transform="translate(10.03 47.521)"><path d="M49.39,189.914v-7.325L47.7,181.8v7.325Z" transform="translate(-47.7 -181.8)" fill="#4d4d4d"></path></g><g transform="translate(6.311 46.148)"><path d="M40.054,185.639v-7.325L37.8,177.3v7.325Z" transform="translate(-37.8 -177.3)" fill="#4d4d4d"></path></g></g><path d="M283.663,3592.822l-5.923,2.365v9.977l2.77,1.468,3.153-3.615Z" transform="translate(-10.275 -4.048)" fill="#f57f29"></path><path d="M233.193,3572.668l41.723,15.643-6.053,2.2-43.371-15.945,8.563-3.76" transform="translate(-3.457 -1.174)" fill="#f57f29"></path></g></svg>